<svg xmlns="http://www.w3.org/2000/svg" width="21.316" height="21.316" viewBox="0 0 21.316 21.316">
  <path id="icons8-adobe-xd" d="M5.368,3A2.369,2.369,0,0,0,3,5.368V21.948a2.369,2.369,0,0,0,2.368,2.368H21.948a2.369,2.369,0,0,0,2.368-2.368V5.368A2.369,2.369,0,0,0,21.948,3Zm0,2.368H21.948V21.948H5.368Zm12.99,2.725v3.761a1.753,1.753,0,0,0-1.443-.749,2.066,2.066,0,0,0-1.818.909,4.908,4.908,0,0,0-.624,2.755v.569a4.735,4.735,0,0,0,.634,2.648,2.054,2.054,0,0,0,1.8.9,1.81,1.81,0,0,0,1.554-.9l.09.766h1.783V8.093Zm-6.77.553-1.36,3.469L8.866,8.648H6.527l2.38,5.007-2.429,5.1H8.847l1.381-3.534,1.388,3.532h2.366l-2.429-5.093,2.373-5.01Zm5.9,4.1a.935.935,0,0,1,.874.555v3.43a.958.958,0,0,1-.881.52.832.832,0,0,1-.8-.442,3.573,3.573,0,0,1-.236-1.55v-.523a3.4,3.4,0,0,1,.25-1.554A.845.845,0,0,1,17.486,12.747Z" transform="translate(-3 -3)" fill="#fff"/>
</svg>
