<svg xmlns="http://www.w3.org/2000/svg" width="19.18" height="22.014" viewBox="0 0 19.18 22.014">
  <g id="axure-2" transform="translate(-91.542 -20.255)">
    <path id="Path_4" data-name="Path 4" d="M140.143,20.838a1.046,1.046,0,0,0-.984-.582h-1.718a1.137,1.137,0,0,0-1.069.563l-2.546,3.721,2.229,3.049,3.892-5.583a1.065,1.065,0,0,0,.2-1.167" transform="translate(-30.415 -0.001)" fill="#fff" fill-rule="evenodd"/>
    <path id="Path_5" data-name="Path 5" d="M96.3,20.776l0,0a1.266,1.266,0,0,0-1.074-.517H93.546a1.052,1.052,0,0,0-.967.542,1.113,1.113,0,0,0,.113,1.169l6.226,8.63-7.159,9.985a1.092,1.092,0,0,0-.1,1.146,1.054,1.054,0,0,0,.968.542h1.718a1.149,1.149,0,0,0,1.025-.591l8.013-11.042Z" fill="#fff" fill-rule="evenodd"/>
    <path id="Path_6" data-name="Path 6" d="M140.948,75.417l-4.995-6.855-2.2,3.029,3.95,5.272.1.045a1.24,1.24,0,0,0,.5.109h1.68a1.077,1.077,0,0,0,.945-.5,1.113,1.113,0,0,0,.015-1.1" transform="translate(-30.365 -34.747)" fill="#fff" fill-rule="evenodd"/>
  </g>
</svg>
