<svg xmlns="http://www.w3.org/2000/svg" width="26.586" height="26.586" viewBox="0 0 26.586 26.586">
  <path id="icons8-github" d="M15.293,2A13.293,13.293,0,1,0,28.586,15.293,13.3,13.3,0,0,0,15.293,2Zm0,1.156A12.13,12.13,0,0,1,27.43,15.293c0,.041,0,.082,0,.123-.37-.034-.8-.067-1.34-.086-.768-.027-1.736-.019-2.833.035a6.171,6.171,0,0,0,.07-.866,4.946,4.946,0,0,0-.9-2.989,8.252,8.252,0,0,0,.352-1.833,2.807,2.807,0,0,0-.674-2.32L21.936,7.2h-.228a5.118,5.118,0,0,0-3.261,1.164,8.683,8.683,0,0,0-3.154-.586,9.142,9.142,0,0,0-3.209.588A5.119,5.119,0,0,0,8.82,7.2H8.593l-.167.155a2.764,2.764,0,0,0-.654,2.272,8.776,8.776,0,0,0,.333,1.877,5.485,5.485,0,0,0-.962,2.978,6.17,6.17,0,0,0,.068.868C6.168,15.3,5.238,15.294,4.5,15.32c-.543.019-.97.051-1.34.086,0-.038,0-.075,0-.113A12.13,12.13,0,0,1,15.293,3.156ZM9.165,8.433a4.466,4.466,0,0,1,2.45.992l.271.239.334-.137a7.988,7.988,0,0,1,3.074-.593,7.508,7.508,0,0,1,3,.587l.339.149.277-.246a4.471,4.471,0,0,1,2.452-.992,1.961,1.961,0,0,1,.257,1.176,8.218,8.218,0,0,1-.35,1.812l-.087.279.173.236a3.839,3.839,0,0,1,.814,2.516v.032a4.114,4.114,0,0,1-1.625,3.452,8.618,8.618,0,0,1-5.31,1.4,8.622,8.622,0,0,1-5.311-1.4A4.113,4.113,0,0,1,8.3,14.483a4.422,4.422,0,0,1,.87-2.548l.169-.23-.081-.274a8.678,8.678,0,0,1-.331-1.859A2.01,2.01,0,0,1,9.165,8.433Zm-3.186,7.45c.408.005.877.027,1.346.051a5.476,5.476,0,0,0,.158.53,26.38,26.38,0,0,0-4.223.4c-.037-.289-.067-.581-.084-.876A25.921,25.921,0,0,1,5.979,15.883Zm18.628.009a25.984,25.984,0,0,1,2.8.1c-.017.291-.046.578-.082.864a26.739,26.739,0,0,0-4.343-.391c.061-.17.112-.344.156-.52C23.657,15.92,24.161,15.9,24.607,15.892ZM7.729,17.038A5.218,5.218,0,0,0,9.218,18.85a7.9,7.9,0,0,0,3.461,1.427,4.554,4.554,0,0,0-.5.619l-.035-.031a2.31,2.31,0,0,1-.721.181c-.434.039-.969.027-1.444.027-.708,0-1.02-.335-1.518-.944a4.1,4.1,0,0,0-.939-.9,2.343,2.343,0,0,0-.973-.458L6.5,18.761H6.45a.9.9,0,0,0-.774.3.738.738,0,0,0-.151.615.729.729,0,0,0,.316.435c.79.527.929,1.569,1.425,2.5a2.678,2.678,0,0,0,2.48,1.358h1.5v2.776a12.138,12.138,0,0,1-7.9-9.3A26.014,26.014,0,0,1,7.729,17.038Zm15.01,0a26.409,26.409,0,0,1,4.5.387,12.139,12.139,0,0,1-7.9,9.308V23.731a5.416,5.416,0,0,0-.824-2.768,4.346,4.346,0,0,0-.554-.715,7.774,7.774,0,0,0,3.293-1.4A5.2,5.2,0,0,0,22.738,17.042Zm-8.2,3.509H16.16a1.816,1.816,0,0,1,1.373,1.02,4.477,4.477,0,0,1,.65,2.158v3.351a12.182,12.182,0,0,1-5.779,0V23.731a4.288,4.288,0,0,1,.7-2.145A1.967,1.967,0,0,1,14.541,20.552Zm-6.583.683a2.721,2.721,0,0,0,2.018.993c.45,0,1.012.016,1.546-.032h.006a5.156,5.156,0,0,0-.167.611H9.745A1.492,1.492,0,0,1,8.3,22.085l0-.008,0-.007A8.115,8.115,0,0,1,7.958,21.235Z" transform="translate(-2 -2)" fill="#fff"/>
</svg>
