<svg xmlns="http://www.w3.org/2000/svg" width="24.7" height="24.646" viewBox="0 0 24.7 24.646">
  <g id="icons8-visual-studio-code-2019" transform="translate(-4.014 -4.051)">
    <path id="Path_7" data-name="Path 7" d="M39.871,8.449V24.374a1.841,1.841,0,0,1-1.223,1.742L33.2,28.673l.494-6.7V10.852L33.2,4.15l5.448,2.557A1.841,1.841,0,0,1,39.871,8.449Z" transform="translate(-11.157 -0.038)" fill="#fff"/>
    <path id="Path_8" data-name="Path 8" d="M7.094,22.487,22.537,10.814V4.855a.8.8,0,0,0-1.405-.531L4.412,19.61a1.236,1.236,0,0,0,.066,1.873s.818.761,1.114.972A1.273,1.273,0,0,0,7.094,22.487Z" transform="translate(0 0)" fill="#fff"/>
    <path id="Path_9" data-name="Path 9" d="M7.094,13.962,22.537,25.634v5.959a.8.8,0,0,1-1.405.531L4.412,16.838a1.236,1.236,0,0,1,.066-1.873s.818-.761,1.114-.972A1.273,1.273,0,0,1,7.094,13.962Z" transform="translate(0 -3.701)" fill="#fff"/>
  </g>
</svg>
