<?xml version="1.0" encoding="UTF-8"?>
<svg id="Laag_1" data-name="Laag 1" xmlns="http://www.w3.org/2000/svg" viewBox="0 0 399.18 277.53">
  <defs>
    <style>
      .cls-1 {
        fill: #fff;
      }
    </style>
  </defs>
  <path class="cls-1" d="M0,155.35c18.98-15.55,68.62-53.2,93.58-41.8,6.53,3.02,10.19,9.92,11.56,16.67,.76,3.91,1.93,8.15,4.68,11.01,7.02,6.92,20.8-1.9,27.85-5.74,19.7-10.97,50.77-36.98,73.93-24.34,10.44,5.79,14.89,17.34,19.96,27.41,15.85,34.14,23.42,71.76,24.61,109.26,.25,8.94,.21,17.67-.58,26.65-.17,1.85-1.8,3.21-3.64,3.04-1.6-.15-2.84-1.39-3.03-2.93-3.26-26.46-5.59-52.92-7.19-79.49-2.24-39.84-3.07-80.01,1.53-119.78,1.65-13.36,3.94-26.66,8.14-39.54C256.51,19.73,267.12,0,286.46,0c10.6-.02,22.05,2.17,29.78,10.07,10.28,10.55,9.93,26.86,7.54,40.26-5.15,26.41-17.23,50.85-30.11,74.21-4.46,7.92-9.23,15.88-14.23,23.5-3.52,5.69-12.87,21.66-4.96,26.39,21.13,9.42,102.69-40.36,124.71-52.95-28,17.7-56.44,35.12-86.83,48.58-6.12,2.63-12.36,5.07-18.85,6.9-27.97,8.09-31.4-7.31-18.88-28.93,1.44-2.48,3.72-6.02,5.21-8.52,15.66-26.29,70.46-124.16,16.07-132.63-5.85-.8-12.28-1.38-17.76,1.21-11.16,5.32-16.65,18.35-20.45,29.74-7.67,24.94-9.51,51.6-10.48,77.67-1.34,52.79,2.27,105.79,8.37,158.19,0,0-6.67,.08-6.67,.08,2.53-34.38-1.42-69.44-11.22-102.48-3.08-10.27-6.94-20.53-11.33-30.33-2.66-5.53-5.49-11.93-8.86-16.99-10.89-16.36-28.67-11.66-43.73-4.29-11.66,5.63-22.67,13-34.05,19.41-8.95,4.71-23.59,13.54-32.47,4.62-3.36-3.57-4.51-8.26-5.33-12.84-1.07-5.96-4-12.08-9.59-14.82-23.31-11.08-73.5,24.96-92.33,39.29H0Z"/>
</svg>